<?xml version="1.0" encoding="UTF-8" standalone="no"?>
<!-- Created with Inkscape (http://www.inkscape.org/) -->

<svg
   xmlns:dc="http://purl.org/dc/elements/1.1/"
   xmlns:cc="http://creativecommons.org/ns#"
   xmlns:rdf="http://www.w3.org/1999/02/22-rdf-syntax-ns#"
   xmlns:svg="http://www.w3.org/2000/svg"
   xmlns="http://www.w3.org/2000/svg"
   xmlns:sodipodi="http://sodipodi.sourceforge.net/DTD/sodipodi-0.dtd"
   xmlns:inkscape="http://www.inkscape.org/namespaces/inkscape"
   id="svg3093"
   version="1.1"
   inkscape:version="0.48.4 r9939"
   width="256"
   height="256"
   sodipodi:docname="icon_big.svg"
   enable-background="new">
  <defs
     id="defs9" />
  <metadata
     id="metadata3099">
    <rdf:RDF>
      <cc:Work
         rdf:about="">
        <dc:format>image/svg+xml</dc:format>
        <dc:type
           rdf:resource="http://purl.org/dc/dcmitype/StillImage" />
      </cc:Work>
    </rdf:RDF>
  </metadata>
  <sodipodi:namedview
     pagecolor="#ffffff"
     bordercolor="#666666"
     borderopacity="1"
     objecttolerance="10"
     gridtolerance="10"
     guidetolerance="10"
     inkscape:pageopacity="0"
     inkscape:pageshadow="2"
     inkscape:window-width="1920"
     inkscape:window-height="1030"
     id="namedview3095"
     showgrid="false"
     inkscape:zoom="2.8284271"
     inkscape:cx="55.834937"
     inkscape:cy="127.09825"
     inkscape:window-x="0"
     inkscape:window-y="0"
     inkscape:window-maximized="1"
     inkscape:current-layer="layer11" />
  <g
     inkscape:groupmode="layer"
     id="layer11"
     inkscape:label="Icon"
     style="display:inline">
    <path
       style="fill:#000000;"
       d="m 68.875,14.625 c -30.375662,0 -55,24.624342 -55,55 0,3.241243 0.305934,6.412656 0.84375,9.5 3.989883,26.57414 37.528376,63.18594 82.78125,93.34375 0.834168,-43.46022 36.30901,-78.4375 79.96875,-78.4375 12.56651,0 24.44983,2.930479 35.03125,8.09375 6.5727,-9.061873 10.46875,-20.199352 10.46875,-32.25 0,-30.375658 -24.62434,-55 -55,-55 -21.77255,0 -40.58726,12.647712 -49.5,31 C 109.60401,27.392954 90.742443,14.625 68.875,14.625 z"
       id="path3191"
       inkscape:connector-curvature="0" />
    <path
       style="fill:#000000;"
       d="m 178.6875,110.5625 c -35.89851,0 -65,29.10149 -65,65 0,35.89851 29.10149,65 65,65 35.89851,0 65,-29.10149 65,-65 0,-35.89851 -29.10149,-65 -65,-65 z m -11.125,22.3125 24.03125,0 0,30.5625 30.75,0 0,23.875 -30.75,0 0,31.625 -24.03125,0 0,-31.625 -29.1875,0 0,-23.875 29.1875,0 0,-30.5625 z"
       id="path3188"
       inkscape:connector-curvature="0" />
  </g>
</svg>
